<svg xmlns="http://www.w3.org/2000/svg" viewBox="0 0 64 64">
  <defs>
    <linearGradient id="bg" x1="0" y1="0" x2="1" y2="1">
      <stop offset="0" stop-color="#0f9d8a" />
      <stop offset="1" stop-color="#1ebfa9" />
    </linearGradient>
    <linearGradient id="sheetA" x1="0" y1="0" x2="1" y2="1">
      <stop offset="0" stop-color="#ffffff" stop-opacity="0.98" />
      <stop offset="1" stop-color="#e8f6ff" stop-opacity="0.96" />
    </linearGradient>
    <linearGradient id="sheetB" x1="0" y1="0" x2="1" y2="1">
      <stop offset="0" stop-color="#ffd5c8" />
      <stop offset="1" stop-color="#ff9f86" />
    </linearGradient>
  </defs>
  <rect x="4" y="4" width="56" height="56" rx="16" fill="url(#bg)" />
  <g transform="translate(15 14)">
    <path d="M4 5h18a3 3 0 0 1 3 3v22a3 3 0 0 1-3 3H4a3 3 0 0 1-3-3V8a3 3 0 0 1 3-3z" fill="url(#sheetA)" />
    <path d="M7 12h12v2H7zm0 6h12v2H7zm0 6h8v2H7z" fill="#9bb4c9" />
  </g>
  <g transform="translate(26 17)">
    <path d="M4 5h18a3 3 0 0 1 3 3v22a3 3 0 0 1-3 3H4a3 3 0 0 1-3-3V8a3 3 0 0 1 3-3z" fill="url(#sheetB)" />
    <path d="M7 12h12v2H7zm0 6h12v2H7zm0 6h8v2H7z" fill="#ffffff" fill-opacity="0.75" />
  </g>
</svg>
